<?xml version="1.0" encoding="utf-8" ?>
<svg baseProfile="full" height="173.350000mm" version="1.1" viewBox="0 0 163 173" width="163.500000mm" xmlns="http://www.w3.org/2000/svg" xmlns:ev="http://www.w3.org/2001/xml-events" xmlns:xlink="http://www.w3.org/1999/xlink"><defs /><rect fill="white" height="172.05" rx="10" ry="10" stroke="black" stroke-width="0.15" width="162.2" x="0.0" y="0.15" /><line stroke="red" stroke-width="0.15" x1="15" x2="147" y1="14.75" y2="14.75" /><line stroke="red" stroke-width="0.15" x1="15" x2="147" y1="15.0" y2="15.0" /><line stroke="red" stroke-width="0.15" x1="15" x2="147" y1="38.45" y2="38.45" /><line stroke="red" stroke-width="0.15" x1="15" x2="147" y1="38.7" y2="38.7" /><line stroke="red" stroke-width="0.15" x1="15" x2="147" y1="62.15" y2="62.15" /><line stroke="red" stroke-width="0.15" x1="15" x2="147" y1="62.4" y2="62.4" /><line stroke="red" stroke-width="0.15" x1="15" x2="147" y1="85.85" y2="85.85" /><line stroke="red" stroke-width="0.15" x1="15" x2="147" y1="86.1" y2="86.1" /><line stroke="red" stroke-width="0.15" x1="15" x2="147" y1="109.55" y2="109.55" /><line stroke="red" stroke-width="0.15" x1="15" x2="147" y1="109.8" y2="109.8" /><line stroke="red" stroke-width="0.15" x1="15" x2="147" y1="133.25" y2="133.25" /><line stroke="red" stroke-width="0.15" x1="15" x2="147" y1="133.5" y2="133.5" /><line stroke="red" stroke-width="0.15" x1="15" x2="147" y1="156.95" y2="156.95" /><line stroke="red" stroke-width="0.15" x1="15" x2="147" y1="157.2" y2="157.2" /><line stroke="red" stroke-width="0.15" x1="14.75" x2="14.75" y1="15" y2="157.2" /><line stroke="red" stroke-width="0.15" x1="15.0" x2="15.0" y1="15" y2="157.2" /><line stroke="red" stroke-width="0.15" x1="36.75" x2="36.75" y1="15" y2="157.2" /><line stroke="red" stroke-width="0.15" x1="37.0" x2="37.0" y1="15" y2="157.2" /><line stroke="red" stroke-width="0.15" x1="58.75" x2="58.75" y1="15" y2="157.2" /><line stroke="red" stroke-width="0.15" x1="59.0" x2="59.0" y1="15" y2="157.2" /><line stroke="red" stroke-width="0.15" x1="80.75" x2="80.75" y1="15" y2="157.2" /><line stroke="red" stroke-width="0.15" x1="81.0" x2="81.0" y1="15" y2="157.2" /><line stroke="red" stroke-width="0.15" x1="102.75" x2="102.75" y1="15" y2="157.2" /><line stroke="red" stroke-width="0.15" x1="103.0" x2="103.0" y1="15" y2="157.2" /><line stroke="red" stroke-width="0.15" x1="124.75" x2="124.75" y1="15" y2="157.2" /><line stroke="red" stroke-width="0.15" x1="125.0" x2="125.0" y1="15" y2="157.2" /><line stroke="red" stroke-width="0.15" x1="146.75" x2="146.75" y1="15" y2="157.2" /><line stroke="red" stroke-width="0.15" x1="147.0" x2="147.0" y1="15" y2="157.2" /><circle cx="80.875" cy="85.975" fill="none" r="1.75" stroke="red" stroke-width="0.15" /><circle cx="80.875" cy="85.975" fill="none" r="1.875" stroke="red" stroke-width="0.15" /></svg>